<?xml version="1.0" encoding="utf-8"?>
<!-- Generator: Adobe Illustrator 18.1.1, SVG Export Plug-In . SVG Version: 6.00 Build 0)  -->
<!DOCTYPE svg PUBLIC "-//W3C//DTD SVG 1.1//EN" "http://www.w3.org/Graphics/SVG/1.1/DTD/svg11.dtd">
<svg version="1.1" id="Layer_1" xmlns="http://www.w3.org/2000/svg" xmlns:xlink="http://www.w3.org/1999/xlink" x="0px" y="0px"
	 width="70px" height="70px" viewBox="0 0 70 70" style="enable-background:new 0 0 70 70;" xml:space="preserve">
<style type="text/css">
	.st0{fill:none;stroke:#010101;stroke-width:1.5;stroke-linecap:round;stroke-miterlimit:10;}
	.st1{fill:none;stroke:#010101;stroke-width:1.5;stroke-linecap:round;stroke-linejoin:round;stroke-miterlimit:10;}
</style>
<g>
	<g>
		<path class="st0" d="M55.6,57.6c0,3.1-2.5,5.6-5.6,5.6H18c-3.1,0-5.6-2.5-5.6-5.6V43.7c0-3.1,2.5-5.6,5.6-5.6h32
			c3.1,0,5.6,2.5,5.6,5.6V57.6z"/>
	</g>
	<g>
		<g>
			<polygon class="st1" points="27.1,12.5 21.4,16.1 21.5,9 27.2,9 			"/>
		</g>
	</g>
	<g>
		<g>
			<path class="st0" d="M34,63.1h15.3V42.1V24.2v-1c0-5.5-4.5-10-10-10H34"/>
		</g>
		<g>
			<path class="st0" d="M34,13.2h-5.3c-5.5,0-10,4.5-10,10v1v17.8v21.1H34"/>
		</g>
	</g>
	<polygon class="st1" points="28.9,27.7 28.9,21.9 34,18.9 39.1,21.9 39.1,27.7 34,30.7 	"/>
	<g>
		<rect x="22.6" y="44.1" class="st1" width="22.9" height="15.2"/>
	</g>
	<g>
		<path class="st0" d="M41.7,49.5c0-0.3-0.2-0.6-0.6-0.6c-0.3,0-0.6,0.2-0.6,0.6l-0.3,2.9c0,0.5,0.4,0.8,0.8,0.8
			c0.5,0,0.8-0.4,0.8-0.8L41.7,49.5z"/>
	</g>
	<g>
		<circle class="st0" cx="41.1" cy="52.3" r="0.4"/>
	</g>
	<g>
		<g>
			<polygon class="st1" points="41.2,13.2 46.9,16.7 46.8,9.7 41.1,9.7 			"/>
		</g>
	</g>
</g>
</svg>
