<?xml version="1.0" encoding="utf-8"?>
<!-- Generator: Adobe Illustrator 18.1.1, SVG Export Plug-In . SVG Version: 6.00 Build 0)  -->
<!DOCTYPE svg PUBLIC "-//W3C//DTD SVG 1.1//EN" "http://www.w3.org/Graphics/SVG/1.1/DTD/svg11.dtd">
<svg version="1.1" id="Layer_1" xmlns="http://www.w3.org/2000/svg" xmlns:xlink="http://www.w3.org/1999/xlink" x="0px" y="0px"
	 width="70px" height="70px" viewBox="0 0 70 70" style="enable-background:new 0 0 70 70;" xml:space="preserve">
<style type="text/css">
	.st0{fill:none;stroke:#010101;stroke-width:1.5;stroke-linecap:round;stroke-miterlimit:10;}
</style>
<g>
	<path class="st0" d="M25.6,24.7c0,0-8.5-0.5-4.4-8.8"/>
	<path class="st0" d="M41.7,24.7c0,0,8.5-0.5,4.4-8.8"/>
	<path class="st0" d="M43.6,34c-0.1-8.7-4.5-15.6-9.8-15.6c-5.3,0-9.6,6.8-9.8,15.3c-2.2,2-3.6,4.7-3.6,7.6
		c0,6.1,5.9,11.1,13.3,11.1c7.3,0,13.3-5,13.3-11.1C46.8,38.5,45.6,36,43.6,34z"/>
	<path class="st0" d="M17.4,34.1c0,0,3.2-0.2,3.7-3.2c0,0,4.4-0.4,12.3,0l0.1,20.6"/>
	<path class="st0" d="M50,34.1c0,0-3.2-0.2-3.7-3.2c0,0-4.4-0.4-12.3,0"/>
	<path class="st0" d="M21.9,46.7c0,0-4.5,5.4-0.1,10.9"/>
	<path class="st0" d="M46,47c0,0,4.5,5.4,0.1,10.9"/>
</g>
</svg>
