<?xml version="1.0" encoding="utf-8"?>
<!-- Generator: Adobe Illustrator 18.1.1, SVG Export Plug-In . SVG Version: 6.00 Build 0)  -->
<!DOCTYPE svg PUBLIC "-//W3C//DTD SVG 1.1//EN" "http://www.w3.org/Graphics/SVG/1.1/DTD/svg11.dtd">
<svg version="1.1" id="Layer_1" xmlns="http://www.w3.org/2000/svg" xmlns:xlink="http://www.w3.org/1999/xlink" x="0px" y="0px"
	 width="70px" height="70px" viewBox="0 0 70 70" style="enable-background:new 0 0 70 70;" xml:space="preserve">
<style type="text/css">
	.st0{fill:none;stroke:#010101;stroke-width:2;stroke-miterlimit:10;}
	.st1{fill:none;stroke:#010101;stroke-width:1.5;stroke-miterlimit:10;}
</style>
<g>
	<g>
		<path class="st0" d="M47.5,26c-1.2,0-2.5-1.1-2.5-2.3v-5.5c0-1.2-0.7-2.1-1.9-2.1H27.6c-1.2,0-2.6,0.9-2.6,2.1v5.5
			c0,1.2-0.6,2.3-1.9,2.3h-8.9c-1.2,0-2.3,0.9-2.3,2.1v26.6c0,1.2,1.1,2.3,2.3,2.3h41c1.2,0,1.7-1.1,1.7-2.3V28.1
			c0-1.2-0.5-2.1-1.7-2.1H47.5z"/>
	</g>
	<circle class="st1" cx="34.7" cy="40.6" r="12.1"/>
	<circle class="st1" cx="34.8" cy="41.1" r="7"/>
</g>
</svg>
