<?xml version="1.0" encoding="utf-8"?>
<!-- Generator: Adobe Illustrator 18.1.1, SVG Export Plug-In . SVG Version: 6.00 Build 0)  -->
<!DOCTYPE svg PUBLIC "-//W3C//DTD SVG 1.1//EN" "http://www.w3.org/Graphics/SVG/1.1/DTD/svg11.dtd">
<svg version="1.1" id="Layer_1" xmlns="http://www.w3.org/2000/svg" xmlns:xlink="http://www.w3.org/1999/xlink" x="0px" y="0px"
	 width="70px" height="70px" viewBox="0 0 70 70" style="enable-background:new 0 0 70 70;" xml:space="preserve">
<style type="text/css">
	.st0{fill:none;stroke:#010101;stroke-width:1.5;stroke-linecap:round;stroke-miterlimit:10;}
	.st1{fill:none;stroke:#010101;stroke-width:2;stroke-miterlimit:10;}
	.st2{fill:none;stroke:#010101;stroke-linecap:round;stroke-miterlimit:10;}
	.st3{fill:none;stroke:#010101;stroke-width:2;stroke-linecap:round;stroke-miterlimit:10;}
</style>
<g>
	<path class="st0" d="M62.1,44.6c0,2.8-2.3,5-5,5H13c-2.8,0-5-2.3-5-5V33.7c0-2.8,2.3-5,5-5H57c2.8,0,5,2.3,5,5V44.6z"/>
</g>
<line class="st1" x1="26" y1="29" x2="26" y2="50"/>
<path class="st0" d="M32.9,35.9c0,0.4,5.6,5.5,5.6,5.5"/>
<line class="st2" x1="35.5" y1="36" x2="35.5" y2="42"/>
<path class="st0" d="M38.3,35.8c0,0.4-5.4,5.7-5.4,5.7"/>
<path class="st0" d="M41.9,35.9c0,0.4,5.6,5.5,5.6,5.5"/>
<line class="st2" x1="44.5" y1="36" x2="44.5" y2="42"/>
<path class="st0" d="M47.4,35.9c0,0.4-5.6,5.5-5.6,5.5"/>
<g>
	<g>
		<path class="st0" d="M21.4,42.6c0,0.2-0.2,0.4-0.4,0.4h-8.1c-0.2,0-0.4-0.2-0.4-0.4v-5.4c0-0.2,0.2-0.4,0.4-0.4h8.1
			c0.2,0,0.4,0.2,0.4,0.4V42.6z"/>
	</g>
	<path class="st0" d="M17.1,40.2"/>
</g>
<path class="st0" d="M13.8,36.8c0,0-0.2-3.2,3.3-3.4c0,0,2.6,0.2,2.8,3.4"/>
<g>
	<line class="st3" x1="54" y1="33" x2="54" y2="44"/>
	<line class="st3" x1="52" y1="33" x2="56" y2="33"/>
	<path class="st0" d="M55,44.9"/>
	<path class="st0" d="M53,44.9"/>
	<line class="st3" x1="52" y1="45" x2="56" y2="45"/>
</g>
</svg>
