<?xml version="1.0" encoding="utf-8"?>
<!-- Generator: Adobe Illustrator 18.1.1, SVG Export Plug-In . SVG Version: 6.00 Build 0)  -->
<!DOCTYPE svg PUBLIC "-//W3C//DTD SVG 1.1//EN" "http://www.w3.org/Graphics/SVG/1.1/DTD/svg11.dtd">
<svg version="1.1" id="Layer_1" xmlns="http://www.w3.org/2000/svg" xmlns:xlink="http://www.w3.org/1999/xlink" x="0px" y="0px"
	 width="70px" height="70px" viewBox="0 0 70 70" style="enable-background:new 0 0 70 70;" xml:space="preserve">
<style type="text/css">
	.st0{fill:none;stroke:#010101;stroke-width:1.5;stroke-linecap:round;stroke-miterlimit:10;}
</style>
<g>
	<g>
		<path class="st0" d="M55.4,17.3c0,3.8-3.9,6.9-8.6,6.9H18.7c-4.8,0-8.6-3.1-8.6-6.9s3.9-6.9,8.6-6.9h28.1
			C51.5,10.4,55.4,13.5,55.4,17.3z"/>
	</g>
	<circle class="st0" cx="34.1" cy="17.3" r="2"/>
	<circle class="st0" cx="40.6" cy="17.3" r="2"/>
	<circle class="st0" cx="47" cy="17.3" r="2"/>
	<g>
		<path class="st0" d="M56.9,37.3c0,3.8-3.9,6.9-8.6,6.9H20.2c-4.8,0-8.6-3.1-8.6-6.9s3.9-6.9,8.6-6.9h28.1
			C53,30.4,56.9,33.5,56.9,37.3z"/>
	</g>
	<circle class="st0" cx="34.8" cy="37.3" r="2"/>
	<circle class="st0" cx="48.5" cy="37.3" r="2"/>
	<g>
		<path class="st0" d="M56.9,57.3c0,3.8-3.9,6.9-8.6,6.9H20.2c-4.8,0-8.6-3.1-8.6-6.9c0-3.8,3.9-6.9,8.6-6.9h28.1
			C53,50.4,56.9,53.5,56.9,57.3z"/>
	</g>
	<circle class="st0" cx="35.5" cy="57.4" r="2"/>
	<circle class="st0" cx="42" cy="57.4" r="2"/>
	<circle class="st0" cx="48.5" cy="57.4" r="2"/>
</g>
</svg>
