<?xml version="1.0" encoding="utf-8"?>
<!-- Generator: Adobe Illustrator 18.1.1, SVG Export Plug-In . SVG Version: 6.00 Build 0)  -->
<!DOCTYPE svg PUBLIC "-//W3C//DTD SVG 1.1//EN" "http://www.w3.org/Graphics/SVG/1.1/DTD/svg11.dtd">
<svg version="1.1" id="Layer_1" xmlns="http://www.w3.org/2000/svg" xmlns:xlink="http://www.w3.org/1999/xlink" x="0px" y="0px"
	 width="70px" height="70px" viewBox="0 0 70 70" style="enable-background:new 0 0 70 70;" xml:space="preserve">
<style type="text/css">
	.st0{fill:none;stroke:#010101;stroke-width:1.5;stroke-linecap:round;stroke-linejoin:round;stroke-miterlimit:10;}
	.st1{fill:none;stroke:#010101;stroke-width:1.5;stroke-linecap:round;stroke-miterlimit:10;}
	.st2{fill:none;stroke:#010101;stroke-width:2;stroke-linecap:round;stroke-miterlimit:10;}
</style>
<g>
	<g>
		<g>
			<rect x="20.2" y="6" class="st0" width="28.7" height="19"/>
		</g>
	</g>
	<circle class="st1" cx="17" cy="39.7" r="2.6"/>
	<circle class="st1" cx="26.6" cy="39.7" r="2.6"/>
	<line class="st2" x1="22" y1="53" x2="22" y2="64"/>
	<line class="st2" x1="27" y1="53" x2="27" y2="64"/>
	<line class="st2" x1="32" y1="53" x2="32" y2="64"/>
	<line class="st2" x1="37" y1="53" x2="37" y2="64"/>
	<line class="st2" x1="42" y1="53" x2="42" y2="64"/>
	<line class="st2" x1="47" y1="53" x2="47" y2="64"/>
	<g>
		<path class="st1" d="M61.6,45.1c0,2.8-2.3,5-5,5H12.5c-2.8,0-5-2.3-5-5V34.2c0-2.8,2.3-5,5-5h44.1c2.8,0,5,2.3,5,5V45.1z"/>
	</g>
	<line class="st2" x1="25" y1="12" x2="44" y2="12"/>
	<line class="st2" x1="25" y1="19" x2="35" y2="19"/>
	<line class="st2" x1="39" y1="19" x2="44" y2="19"/>
</g>
</svg>
