<?xml version="1.0" encoding="utf-8"?>
<!-- Generator: Adobe Illustrator 18.1.1, SVG Export Plug-In . SVG Version: 6.00 Build 0)  -->
<!DOCTYPE svg PUBLIC "-//W3C//DTD SVG 1.1//EN" "http://www.w3.org/Graphics/SVG/1.1/DTD/svg11.dtd">
<svg version="1.1" id="Layer_1" xmlns="http://www.w3.org/2000/svg" xmlns:xlink="http://www.w3.org/1999/xlink" x="0px" y="0px"
	 width="70px" height="70px" viewBox="0 0 70 70" style="enable-background:new 0 0 70 70;" xml:space="preserve">
<style type="text/css">
	.st0{fill:none;stroke:#010101;stroke-width:1.5;stroke-linecap:round;stroke-linejoin:round;stroke-miterlimit:10;}
	.st1{fill:none;stroke:#010101;stroke-width:1.5;stroke-linecap:round;stroke-miterlimit:10;}
</style>
<rect x="17.2" y="23.9" class="st0" width="34.5" height="12"/>
<polygon class="st0" points="29.5,54.5 12.8,54.5 15.1,35.9 28.3,35.9 "/>
<rect x="11.9" y="54.5" class="st0" width="19.1" height="3.9"/>
<polygon class="st0" points="39.5,54.5 56.2,54.5 54.9,44.6 53.8,35.9 49.7,35.9 48.1,35.9 40.7,35.9 "/>
<rect x="38" y="54.5" class="st0" width="19.1" height="3.9"/>
<rect x="19.5" y="18.1" class="st0" width="6.3" height="5.8"/>
<rect x="20.7" y="14.7" class="st0" width="3.8" height="2.8"/>
<rect x="43.3" y="18.1" class="st0" width="6.3" height="5.8"/>
<rect x="44.5" y="14.7" class="st0" width="3.8" height="2.8"/>
<circle class="st1" cx="42.2" cy="29.6" r="2.4"/>
<circle class="st1" cx="26.9" cy="29.6" r="2.4"/>
<path class="st1" d="M29.5,41.8c0.3-0.1,10.5,0,10.5,0"/>
</svg>
