<?xml version="1.0" encoding="utf-8"?>
<!-- Generator: Adobe Illustrator 18.1.1, SVG Export Plug-In . SVG Version: 6.00 Build 0)  -->
<!DOCTYPE svg PUBLIC "-//W3C//DTD SVG 1.1//EN" "http://www.w3.org/Graphics/SVG/1.1/DTD/svg11.dtd">
<svg version="1.1" id="Layer_1" xmlns="http://www.w3.org/2000/svg" xmlns:xlink="http://www.w3.org/1999/xlink" x="0px" y="0px"
	 width="70px" height="70px" viewBox="0 0 70 70" style="enable-background:new 0 0 70 70;" xml:space="preserve">
<style type="text/css">
	.st0{fill:none;stroke:#030405;stroke-width:1.5;stroke-linecap:round;stroke-miterlimit:10;}
	.st1{fill:none;stroke:#030405;stroke-width:2;stroke-linecap:round;stroke-miterlimit:10;}
</style>
<g>
	<g>
		<path class="st0" d="M47.7,26.2h-2c-1,0-1.9-0.9-1.9-1.9v-3.5c0-1-0.9-1.9-1.9-1.9h-9c-1,0-1.9,0.9-1.9,1.9v3.5
			c0,1-0.9,1.9-1.9,1.9h-1.4c-1,0-1.9-0.8-1.9-1.9c0-1-0.9-1.9-1.9-1.9h-3.3c-1,0-1.9,0.9-1.9,1.9v0.1c0,1-0.7,2.4-1.6,3l-2,2.7
			c-0.4,1-0.7,2.6-0.7,3.7V47c0,2.9,2.4,5.3,5.3,5.3h28c2.9,0,5.3-2.4,5.3-5.3V31.5C53,28.6,50.6,26.2,47.7,26.2z"/>
	</g>
	<path class="st0" d="M45.5,35.1c1.8,4.8-1.1,9.4-5.3,10.4c-0.6,0.1-1.1,0.2-1.7,0.2c-2.1,0-4-0.8-5.4-2.2c-1.4-1.4-2.3-3.3-2.3-5.4
		c0-5.2,5.1-9.2,10.6-7.2C43.2,31.6,44.7,33.2,45.5,35.1z"/>
	<line class="st1" x1="18.7" y1="32.3" x2="24.7" y2="32.3"/>
</g>
</svg>
