<?xml version="1.0" encoding="utf-8"?>
<!-- Generator: Adobe Illustrator 18.1.1, SVG Export Plug-In . SVG Version: 6.00 Build 0)  -->
<!DOCTYPE svg PUBLIC "-//W3C//DTD SVG 1.1//EN" "http://www.w3.org/Graphics/SVG/1.1/DTD/svg11.dtd">
<svg version="1.1" id="Layer_1" xmlns="http://www.w3.org/2000/svg" xmlns:xlink="http://www.w3.org/1999/xlink" x="0px" y="0px"
	 width="70px" height="70px" viewBox="0 0 70 70" style="enable-background:new 0 0 70 70;" xml:space="preserve">
<style type="text/css">
	.st0{fill:none;stroke:#010101;stroke-width:1.5;stroke-linecap:round;stroke-miterlimit:10;}
	.st1{fill:none;stroke:#010101;stroke-width:2;stroke-linecap:round;stroke-miterlimit:10;}
	.st2{fill:none;stroke:#010101;stroke-width:3;stroke-linecap:round;stroke-miterlimit:10;}
</style>
<g>
	<path class="st0" d="M64.1,58.4c0,2.2-1.8,4-4,4H24.7c-2.2,0-4-1.8-4-4v-43c0-2.2,1.8-4,4-4h35.4c2.2,0,4,1.8,4,4V58.4z"/>
</g>
<g>
	<ellipse class="st0" cx="25.7" cy="37.6" rx="14.4" ry="13.8"/>
	<line class="st0" x1="16.3" y1="48.9" x2="3.7" y2="62.3"/>
</g>
<line class="st1" x1="26" y1="20" x2="58" y2="20"/>
<line class="st1" x1="42" y1="26" x2="49" y2="26"/>
<line class="st1" x1="52" y1="26" x2="58" y2="26"/>
<line class="st1" x1="26" y1="31" x2="55" y2="31"/>
<line class="st1" x1="26" y1="37" x2="58" y2="37"/>
<line class="st1" x1="42" y1="43" x2="49" y2="43"/>
<line class="st1" x1="52" y1="43" x2="58" y2="43"/>
<line class="st1" x1="42" y1="48" x2="55" y2="48"/>
<line class="st1" x1="29" y1="54" x2="61" y2="54"/>
<line class="st1" x1="25" y1="38" x2="39" y2="38"/>
<line class="st1" x1="28" y1="45" x2="37" y2="45"/>
<line class="st1" x1="24" y1="31" x2="37" y2="31"/>
<g>
	<path class="st0" d="M64.1,58.4c0,2.2-1.8,4-4,4H24.7c-2.2,0-4-1.8-4-4v-43c0-2.2,1.8-4,4-4h35.4c2.2,0,4,1.8,4,4V58.4z"/>
</g>
<g>
	<ellipse class="st0" cx="25.7" cy="37.6" rx="14.4" ry="13.8"/>
	<line class="st0" x1="16.3" y1="48.9" x2="3.7" y2="62.3"/>
</g>
<line class="st1" x1="26" y1="20" x2="58" y2="20"/>
<line class="st1" x1="42" y1="26" x2="49" y2="26"/>
<line class="st1" x1="52" y1="26" x2="58" y2="26"/>
<line class="st1" x1="26" y1="31" x2="55" y2="31"/>
<line class="st1" x1="26" y1="37" x2="58" y2="37"/>
<line class="st1" x1="42" y1="43" x2="49" y2="43"/>
<line class="st1" x1="52" y1="43" x2="58" y2="43"/>
<line class="st1" x1="42" y1="48" x2="55" y2="48"/>
<line class="st1" x1="29" y1="54" x2="61" y2="54"/>
<line class="st2" x1="25" y1="37.5" x2="39" y2="37.5"/>
<line class="st2" x1="27" y1="45.5" x2="36" y2="45.5"/>
<line class="st2" x1="24" y1="30.5" x2="37" y2="30.5"/>
</svg>
