<?xml version="1.0" encoding="utf-8"?>
<!-- Generator: Adobe Illustrator 18.1.1, SVG Export Plug-In . SVG Version: 6.00 Build 0)  -->
<!DOCTYPE svg PUBLIC "-//W3C//DTD SVG 1.1//EN" "http://www.w3.org/Graphics/SVG/1.1/DTD/svg11.dtd">
<svg version="1.1" id="Layer_1" xmlns="http://www.w3.org/2000/svg" xmlns:xlink="http://www.w3.org/1999/xlink" x="0px" y="0px"
	 width="70px" height="70px" viewBox="0 0 70 70" style="enable-background:new 0 0 70 70;" xml:space="preserve">
<style type="text/css">
	.st0{fill:#010101;}
</style>
<g>
	<g id="XMLID_16_">
		<g>
			<path class="st0" d="M63.7,30.8v2.5c-3.4,0-3.7,3.9-3.7,3.9C58.3,46.3,48.8,46,48.8,46c-7.5,0-10-7.9-10-7.9
				c-1.1-1.4-1.6-2.5-1.6-2.5v-2.4c0-0.6-1.1-0.7-1.1-0.7h-1.6h-0.2h-1.6c0,0-1.1,0.2-1.1,0.7v2.4c0,0-0.6,1.1-1.6,2.5
				c0,0-2.5,7.9-10,7.9c0,0-9.5,0.3-11.3-8.8c0,0-0.2-3.9-3.7-3.9v-2.5c0,0,2.2,0.2,3.9-0.7c0,0,11-5.5,20.9,1.6l1.5-1.3h2.8h0.2
				h2.8l1.5,1.3c10-7,20.9-1.6,20.9-1.6C61.6,31,63.7,30.8,63.7,30.8z M63,32.1c0-0.3-0.2-0.5-0.5-0.5c-0.3,0-0.5,0.2-0.5,0.5
				c0,0.3,0.2,0.5,0.5,0.5C62.7,32.7,63,32.4,63,32.1z M61.4,32.1c0-0.3-0.2-0.5-0.5-0.5s-0.5,0.2-0.5,0.5c0,0.3,0.2,0.5,0.5,0.5
				S61.4,32.4,61.4,32.1z M59,36.9c0,0,0.5-2.4,0-4.1c0,0-0.6-4.2-9.5-3.6c0,0-8,0.1-9.4,5.3c0,0-1.2,7.5,6.6,9.6
				C46.6,44.1,56.6,46.6,59,36.9z M22.4,44.1c7.8-2,6.6-9.6,6.6-9.6c-1.5-5.3-9.4-5.3-9.4-5.3c-8.9-0.6-9.5,3.6-9.5,3.6
				c-0.5,1.8,0,4.1,0,4.1C12.4,46.6,22.4,44.1,22.4,44.1z M8.6,32.1c0-0.3-0.2-0.5-0.5-0.5c-0.3,0-0.5,0.2-0.5,0.5
				c0,0.3,0.2,0.5,0.5,0.5C8.4,32.7,8.6,32.4,8.6,32.1z M7,32.1c0-0.3-0.2-0.5-0.5-0.5c-0.3,0-0.5,0.2-0.5,0.5
				c0,0.3,0.2,0.5,0.5,0.5C6.8,32.7,7,32.4,7,32.1z"/>
		</g>
	</g>
</g>
</svg>
