<?xml version="1.0" encoding="utf-8"?>
<!-- Generator: Adobe Illustrator 18.1.1, SVG Export Plug-In . SVG Version: 6.00 Build 0)  -->
<!DOCTYPE svg PUBLIC "-//W3C//DTD SVG 1.1//EN" "http://www.w3.org/Graphics/SVG/1.1/DTD/svg11.dtd">
<svg version="1.1" id="Layer_1" xmlns="http://www.w3.org/2000/svg" xmlns:xlink="http://www.w3.org/1999/xlink" x="0px" y="0px"
	 width="70px" height="70px" viewBox="0 0 70 70" style="enable-background:new 0 0 70 70;" xml:space="preserve">
<style type="text/css">
	.st0{fill:none;stroke:#010101;stroke-width:1.5;stroke-linecap:round;stroke-linejoin:round;stroke-miterlimit:10;}
</style>
<g>
	<path class="st0" d="M13,44.2c-0.1-1.1,0.5,0.9,0.8,0.9c4.9,4.1,10.3,4,16.6,2.6c1.1-0.3,2.2-0.9,3.4-1.1c1.7-0.4,3.3,0.3,4.9,0.7
		c3.3,0.9,6.7,0.8,10.2,0c2.8-0.7,5.1-1.4,7.5-3.7c0.2-0.2,0.3-0.3,0.4-0.5c0.2-0.2,0.2-0.3,0.3-0.5 M56.9,42.1
		c0.3-1.7,0.6-3.4,0.8-5.1c0.3-2.8,0.5-5.7,0.8-8.5c0.1-0.8,0.2-1.5,0.4-2.5c-0.5,0.3-0.8,0.5-1.1,0.7c-1.1,0.8-2.2,1.4-3.5,1.3
		c-2.5-0.2-4.8-0.9-7.1-2c-1.5-0.7-3.1-1.3-4.7-1.6c-2.5-0.5-4.9-0.2-7.1,1.1c-0.2,0.1-0.6,0.1-0.9,0c-1-0.4-1.9-1-2.9-1.1
		c-2.5-0.4-4.9-0.1-7.3,0.9c-2.6,1.1-5.1,2.3-8,2.6c-1.7,0.2-3-0.3-4.3-1.2c-0.3-0.2-0.6-0.4-1-0.6c0,0.3,0,0.5,0,0.6
		c0.4,2.9,0.7,5.8,1.1,8.7c0.3,2.2,0.5,5.6,0.8,7.8"/>
	<path class="st0" d="M16.2,36.9c0,0,6.4-7.3,15.4,0C31.3,37.3,23.6,46,16.2,36.9"/>
	<path class="st0" d="M38,36.9c0,0,6.4-7.3,15.4,0C53,37.3,45.3,46,38,36.9"/>
</g>
</svg>
