<?xml version="1.0" encoding="utf-8"?>
<!-- Generator: Adobe Illustrator 18.1.1, SVG Export Plug-In . SVG Version: 6.00 Build 0)  -->
<!DOCTYPE svg PUBLIC "-//W3C//DTD SVG 1.1//EN" "http://www.w3.org/Graphics/SVG/1.1/DTD/svg11.dtd">
<svg version="1.1" id="Layer_1" xmlns="http://www.w3.org/2000/svg" xmlns:xlink="http://www.w3.org/1999/xlink" x="0px" y="0px"
	 width="70px" height="70px" viewBox="0 0 70 70" style="enable-background:new 0 0 70 70;" xml:space="preserve">
<style type="text/css">
	.st0{fill:none;stroke:#010101;stroke-width:1.5;stroke-linecap:round;stroke-miterlimit:10;}
	.st1{fill:none;stroke:#010101;stroke-width:2;stroke-linecap:round;stroke-miterlimit:10;}
	.st2{fill:none;stroke:#010101;stroke-linecap:round;stroke-linejoin:round;stroke-miterlimit:10;}
</style>
<g>
	<path class="st0" d="M62.1,43.6c0,2.8-2.3,5-5,5H13c-2.8,0-5-2.3-5-5V32.7c0-2.8,2.3-5,5-5H57c2.8,0,5,2.3,5,5V43.6z"/>
</g>
<line class="st1" x1="53" y1="32" x2="53" y2="43"/>
<line class="st1" x1="51" y1="32" x2="55" y2="32"/>
<path class="st0" d="M54,43.9"/>
<path class="st0" d="M52,43.9"/>
<line class="st1" x1="51" y1="44" x2="55" y2="44"/>
<path class="st0" d="M14.9,34.9c0,0.4,5.6,5.5,5.6,5.5"/>
<line class="st2" x1="17.5" y1="35" x2="17.5" y2="41"/>
<path class="st0" d="M20.4,34.9c0,0.4-5.6,5.5-5.6,5.5"/>
<path class="st0" d="M23.9,34.9c0,0.4,5.6,5.5,5.6,5.5"/>
<line class="st2" x1="26.5" y1="35" x2="26.5" y2="41"/>
<path class="st0" d="M29.4,34.9c0,0.4-5.6,5.5-5.6,5.5"/>
<path class="st0" d="M32.9,34.9c0,0.4,5.6,5.5,5.6,5.5"/>
<line class="st2" x1="35.5" y1="35" x2="35.5" y2="41"/>
<path class="st0" d="M38.4,34.9c0,0.4-5.6,5.5-5.6,5.5"/>
<path class="st0" d="M41.9,34.9c0,0.4,5.6,5.5,5.6,5.5"/>
<line class="st2" x1="44.5" y1="35" x2="44.5" y2="41"/>
<path class="st0" d="M47.4,34.9c0,0.4-5.6,5.5-5.6,5.5"/>
</svg>
