<?xml version="1.0" encoding="utf-8"?>
<!-- Generator: Adobe Illustrator 18.1.1, SVG Export Plug-In . SVG Version: 6.00 Build 0)  -->
<!DOCTYPE svg PUBLIC "-//W3C//DTD SVG 1.1//EN" "http://www.w3.org/Graphics/SVG/1.1/DTD/svg11.dtd">
<svg version="1.1" id="Layer_1" xmlns="http://www.w3.org/2000/svg" xmlns:xlink="http://www.w3.org/1999/xlink" x="0px" y="0px"
	 width="70px" height="70px" viewBox="0 0 70 70" style="enable-background:new 0 0 70 70;" xml:space="preserve">
<style type="text/css">
	.st0{fill:none;stroke:#010101;stroke-width:1.5;stroke-linecap:round;stroke-miterlimit:10;}
</style>
<g>
	<path class="st0" d="M53.5,38.8L53.5,38.8c1.5-0.4,2.3-1.9,1.9-3.4L49.9,15c-0.4-1.5-1.9-2.3-3.4-1.9l0,0c-1.5,0.4-2.3,1.9-1.9,3.4
		l5.6,20.4C50.5,38.3,52.1,39.2,53.5,38.8z"/>
	<path class="st0" d="M50.8,15.6c0,0,11.8,3.7,4.9,18.1"/>
	<polygon class="st0" points="27.6,36.2 12.8,38.1 11.4,32.9 25.1,26.9 	"/>
	<rect x="26" y="20.2" transform="matrix(0.971 -0.239 0.239 0.971 -5.8354 9.6113)" class="st0" width="21.4" height="17.3"/>
	<line class="st0" x1="32.4" y1="39.5" x2="20.3" y2="56.3"/>
	<line class="st0" x1="32.6" y1="39.6" x2="31.4" y2="59.4"/>
	<line class="st0" x1="32.6" y1="39.7" x2="44.7" y2="56.5"/>
	<rect x="7.7" y="34.1" transform="matrix(0.9746 -0.2241 0.2241 0.9746 -7.7904 3.1019)" class="st0" width="4.1" height="3.6"/>
</g>
</svg>
